<?xml version="1.0" standalone="no"?>
<!DOCTYPE svg PUBLIC "-//W3C//DTD SVG 20010904//EN"
 "http://www.w3.org/TR/2001/REC-SVG-20010904/DTD/svg10.dtd">
<svg version="1.0" xmlns="http://www.w3.org/2000/svg"
 width="512.000000pt" height="512.000000pt" viewBox="0 0 512.000000 512.000000"
 preserveAspectRatio="xMidYMid meet">

<g transform="translate(0.000000,512.000000) scale(0.100000,-0.100000)"
fill="#000000" stroke="none">
<path d="M840 4663 c-427 -68 -752 -383 -825 -798 -23 -131 -23 -2479 0 -2610
67 -382 350 -683 735 -781 72 -18 136 -19 1810 -19 1674 0 1738 1 1810 19 364
93 621 348 722 717 l23 84 0 1285 0 1285 -23 84 c-101 368 -337 605 -717 718
-56 16 -164 18 -1785 19 -949 1 -1736 0 -1750 -3z m832 -1117 c147 -28 277
-97 395 -209 101 -96 133 -147 133 -211 0 -75 -40 -126 -115 -147 -66 -19
-104 0 -203 100 -94 95 -152 131 -254 157 -203 52 -428 -77 -542 -310 -57
-118 -80 -221 -80 -366 0 -97 5 -144 23 -209 58 -219 193 -388 362 -452 199
-76 424 17 562 233 42 65 62 111 87 199 l18 67 -127 4 c-103 3 -133 7 -160 23
-56 33 -76 68 -76 135 0 67 20 102 76 135 30 18 56 20 223 23 254 5 288 0 340
-48 l41 -39 3 -98 c9 -246 -99 -527 -272 -710 -242 -256 -564 -329 -871 -198
-55 24 -160 94 -217 144 -62 55 -161 187 -202 270 -44 86 -90 218 -107 306
-18 91 -18 339 0 430 32 161 104 325 201 453 69 92 127 147 220 207 167 109
354 147 542 111z m1276 -13 c14 -11 35 -32 46 -47 21 -27 21 -34 21 -926 0
-892 0 -899 -21 -926 -38 -51 -71 -69 -129 -69 -60 0 -95 20 -132 75 l-23 33
0 884 c0 952 -2 910 52 960 12 12 34 27 48 32 35 15 108 7 138 -16z m1408 1
c51 -38 69 -71 69 -129 0 -60 -20 -95 -75 -132 -33 -23 -37 -23 -361 -23
l-329 0 0 -164 0 -165 328 -3 c309 -3 329 -4 362 -24 104 -61 102 -214 -3
-272 -28 -15 -71 -17 -359 -20 l-327 -3 -3 -462 c-3 -441 -4 -464 -23 -496
-33 -56 -68 -76 -133 -76 -44 0 -65 5 -90 23 -71 51 -67 -7 -70 927 -2 462 0
863 3 892 8 62 37 109 85 135 33 17 61 18 467 16 418 -3 432 -4 459 -24z"/>
</g>
</svg>
